<?xml version="1.0" encoding="UTF-8"?>
<svg width="200" height="200" viewBox="0 0 200 200" fill="none" xmlns="http://www.w3.org/2000/svg">
  <rect width="200" height="200" rx="20" fill="#F8F9FA"/>
  <path d="M100 40C68.954 40 44 64.954 44 96C44 127.046 68.954 152 100 152C131.046 152 156 127.046 156 96C156 64.954 131.046 40 100 40ZM100 148C71.281 148 48 124.719 48 96C48 67.281 71.281 44 100 44C128.719 44 152 67.281 152 96C152 124.719 128.719 148 100 148Z" fill="#0D6EFD"/>
  <path d="M100 52C75.147 52 56 71.147 56 96C56 120.853 75.147 140 100 140C124.853 140 144 120.853 144 96C144 71.147 124.853 52 100 52ZM100 136C77.909 136 60 118.091 60 96C60 73.909 77.909 56 100 56C122.091 56 140 73.909 140 96C140 118.091 122.091 136 100 136Z" fill="#0D6EFD"/>
  <circle cx="100" cy="96" r="20" fill="#0D6EFD"/>
  <path d="M100 76C87.297 76 77 86.297 77 99C77 111.703 87.297 122 100 122C112.703 122 123 111.703 123 99C123 86.297 112.703 76 100 76ZM100 118C89.507 118 81 109.493 81 99C81 88.507 89.507 80 100 80C110.493 80 119 88.507 119 99C119 109.493 110.493 118 100 118Z" fill="white"/>
  <circle cx="100" cy="99" r="8" fill="white"/>
</svg> 